HIERARCHY
ROOT Hips
{
	OFFSET 0.00000 0.00000 0.00000
	CHANNELS 6 Xposition Yposition Zposition Zrotation Yrotation Xrotation 
	JOINT LHipJoint
	{
		OFFSET 0 0 0
		CHANNELS 3 Zrotation Yrotation Xrotation
		JOINT LeftHip
		{
			OFFSET 1.62067 -1.77917 0.70989
			CHANNELS 3 Zrotation Yrotation Xrotation
			JOINT LeftKnee
			{
				OFFSET 2.34532 -6.44371 0.00000
				CHANNELS 3 Zrotation Yrotation Xrotation
				JOINT LeftAnkle
				{
					OFFSET 2.74224 -7.53425 0.00000
					CHANNELS 3 Zrotation Yrotation Xrotation
					JOINT LeftToe
					{
						OFFSET 0.17032 -0.46794 2.08086
						CHANNELS 3 Zrotation Yrotation Xrotation
						End Site
						{
							OFFSET 0.00000 -0.00000 1.07476
						}
					}
				}
			}
		}
	}
	JOINT RHipJoint
	{
		OFFSET 0 0 0
		CHANNELS 3 Zrotation Yrotation Xrotation
		JOINT RightHip
		{
			OFFSET -1.55811 -1.77917 0.70989
			CHANNELS 3 Zrotation Yrotation Xrotation
			JOINT RightKnee
			{
				OFFSET -2.33243 -6.40830 0.00000
				CHANNELS 3 Zrotation Yrotation Xrotation
				JOINT RightAnkle
				{
					OFFSET -2.78798 -7.65993 0.00000
					CHANNELS 3 Zrotation Yrotation Xrotation
					JOINT RightToe
					{
						OFFSET -0.22707 -0.62388 2.04059
						CHANNELS 3 Zrotation Yrotation Xrotation
						End Site
						{
							OFFSET -0.00000 -0.00000 1.07030
						}
					}
				}
			}
		}
	}
	JOINT lowerback
	{
		OFFSET 0 0 0
		CHANNELS 3 Zrotation Yrotation Xrotation
		JOINT Chest
		{
			OFFSET 0.02203 1.91565 0.07161
			CHANNELS 3 Zrotation Yrotation Xrotation
			JOINT Chest2
			{
				OFFSET 0.01740 1.90525 0.11636
				CHANNELS 3 Zrotation Yrotation Xrotation
				JOINT lowerneck
				{
					OFFSET 0 0 0
					CHANNELS 3 Zrotation Yrotation Xrotation
					JOINT Neck
					{
						OFFSET -0.10841 1.83566 0.05067
						CHANNELS 3 Zrotation Yrotation Xrotation
						JOINT Head
						{
							OFFSET 0.06601 1.74760 -0.50505
							CHANNELS 3 Zrotation Yrotation Xrotation
							End Site
							{
								OFFSET 0.03102 1.85215 -0.17697
							}
						}
					}
				}
				JOINT LeftCollar
				{
					OFFSET 0 0 0
					CHANNELS 3 Zrotation Yrotation Xrotation
					JOINT LeftShoulder
					{
						OFFSET 2.87059 1.35470 0.16111
CHANNELS 3 Zrotation Xrotation Yrotation
						JOINT LeftElbow
						{
OFFSET 0 -5.435920 0.000000
CHANNELS 3 Zrotation Xrotation Yrotation
							JOINT LeftWrist
							{
OFFSET 0 -3.254600 0.000000
CHANNELS 3 Zrotation Xrotation Yrotation
								JOINT lhand
								{
									OFFSET 0 0 0
CHANNELS 3 Zrotation Xrotation Yrotation
									JOINT LFingers
									{
OFFSET 0 -0.498240 0.000000
CHANNELS 3 Zrotation Xrotation Yrotation
										End Site
										{
OFFSET 0 -0.401700 0.000000
										}
									}
								}
								JOINT LThumb
								{
OFFSET 0 0.000000 0.000000
CHANNELS 3 Zrotation Xrotation Yrotation
									End Site
									{
OFFSET 0 -0.407830 0.407830
									}
								}
							}
						}
					}
				}
				JOINT RightCollar
				{
					OFFSET 0 0 0
					CHANNELS 3 Zrotation Yrotation Xrotation
					JOINT RightShoulder
					{
						OFFSET -2.86643 1.23488 0.45957
CHANNELS 3 Zrotation Xrotation Yrotation
						JOINT RightElbow
						{
OFFSET 0 -5.338300 0.000000
CHANNELS 3 Zrotation Xrotation Yrotation
							JOINT RightWrist
							{
OFFSET 0 -3.231480 0.000000
CHANNELS 3 Zrotation Xrotation Yrotation
								JOINT rhand
								{
									OFFSET 0 0 0
CHANNELS 3 Zrotation Xrotation Yrotation
									JOINT RFingers
									{
OFFSET 0 -0.463640 0.000000
CHANNELS 3 Zrotation Xrotation Yrotation
										End Site
										{
OFFSET 0 -0.373800 0.000000
										}
									}
								}
								JOINT RThumb
								{
OFFSET 0 0.000000 0.000000
CHANNELS 3 Zrotation Xrotation Yrotation
									End Site
									{
OFFSET 0 -0.379510 0.379510
									}
								}
							}
						}
					}
				}
			}
		}
	}
}
MOTION
Frames: 16
Frame Time: .0083333
3.7644 17.4330 3.6715 -1.3893 -7.8210 21.3672 0.0000 0.0000 0.0000 -22.6003 -11.1753 -26.8222 1.8385 8.5213 24.3091 0.8184 -0.0189 -17.0955 0.2364 3.1289 8.6377 0.0000 0.0000 0.0000 0.4975 2.3661 5.8966 0.0000 0.0000 -0.0000 -0.1500 -16.8444 -25.2108 -4.9911 -13.3738 40.7843 7.3175 1.2074 -11.3360 1.1120 1.2008 -13.8217 -2.8305 -0.0466 -8.3906 13.0551 18.2681 -2.3367 7.6227 22.9064 11.5342 1.6320 12.1554 4.4443 -0.0000 -0.0000 0.0000 131.9191 -10.5684 26.3962 15.3521 -24.6343 3.3713 27.7278 -35.7099 20.4971 0.0 0.0 0.0 -7.1250 0.0 0.0 -0.5009 7.085 -0.4353 -0.0000 -0.0000 0.0000 -105.8848 18.8906 -23.4682 -140.9878 -47.4737 -102.2922 -5.6453 -55.3172 46.0749 0.0 0.0 0.0 7.1250 0.0 -0.0 50.7575 70.1463 -33.2072
3.7639 17.4322 3.6702 -1.2254 -7.9915 21.4629 0.0000 0.0000 0.0000 -22.8318 -11.0655 -26.9336 1.8278 8.4978 24.2365 0.8321 -0.0879 -17.2143 0.2358 3.1251 8.6272 0.0000 0.0000 0.0000 0.2435 2.4786 5.7468 0.0000 -0.0000 0.0000 -0.4283 -15.1536 -25.4597 -5.3255 -13.7413 42.2108 7.1185 1.2269 -11.3698 1.0350 1.2322 -13.8826 -2.8008 -0.0204 -8.4347 13.1504 18.2466 -2.2621 7.5040 22.8971 11.5111 1.5826 12.1469 4.4500 -0.0000 -0.0000 0.0000 132.0108 -10.49 26.3558 15.3595 -24.6446 3.3744 27.4284 -35.7603 20.5933 0.0 0.0 0.0 -7.1250 0.0 0.0 -0.7025 7.0368 -0.6112 -0.0000 -0.0000 0.0000 -105.879 18.8837 -23.4844 -140.9626 -47.4892 -102.2736 -4.9969 -55.7589 45.9427 0.0 0.0 0.0 7.1250 0.0 -0.0 51.0367 69.8488 -33.1142
3.7654 17.4331 3.6687 -1.2673 -8.3256 21.8108 0.0000 0.0000 0.0000 -22.7917 -11.1445 -27.3396 1.8364 8.5166 24.2944 0.8209 0.1811 -17.1920 0.2232 3.0415 8.3942 0.0000 0.0000 0.0000 0.1199 2.8382 5.3157 0.0000 -0.0000 0.0000 -0.5409 -14.5247 -25.6683 -5.4839 -13.9088 42.8735 7.0522 1.3659 -11.5438 0.9995 1.4061 -13.9987 -2.7917 0.0666 -8.4531 13.1738 18.2244 -2.2388 7.3934 22.8884 11.3869 1.5396 12.1320 4.4220 0.0000 0.0000 0.0000 132.0705 -10.5199 26.5449 15.3298 -24.6036 3.3621 27.3609 -35.7366 20.9317 0.0 0.0 0.0 -7.1250 0.0 0.0 -0.7867 6.6812 -0.6899 0.0000 0.0000 0.0000 -105.919 18.9363 -23.4518 -140.9253 -47.512 -102.2462 -4.3348 -56.1594 45.7793 0.0 0.0 0.0 7.1250 0.0 -0.0 51.2649 69.5298 -32.9566
3.7621 17.4301 3.6776 -1.2782 -7.9592 21.5570 0.0000 0.0000 0.0000 -22.7332 -11.1613 -27.0413 1.8417 8.5282 24.3301 0.8190 -0.0109 -17.1044 0.2179 3.0051 8.2930 0.0000 0.0000 0.0000 0.3181 2.4562 5.6923 0.0000 0.0000 -0.0000 -0.8389 -12.9399 -26.3798 -5.9127 -14.3432 44.6305 7.1881 1.2590 -11.3935 0.9908 1.2696 -13.9434 -2.8848 -0.0140 -8.4887 13.1170 18.2030 -2.4483 7.4891 22.8093 11.5776 1.5987 12.1073 4.4966 -0.0000 0.0000 0.0000 132.0843 -10.6064 26.7643 15.2906 -24.5494 3.3458 27.6213 -35.7567 21.1713 0.0 0.0 0.0 -7.1250 0.0 0.0 -0.6524 6.3701 -0.576 -0.0000 0.0000 0.0000 -105.9504 18.9366 -23.4419 -140.8924 -47.5322 -102.2219 -4.1916 -56.1945 45.7913 0.0 0.0 0.0 7.1250 0.0 -0.0 51.4174 69.4895 -33.03
3.7595 17.4280 3.6801 -1.3309 -7.7946 21.4522 0.0000 0.0000 0.0000 -22.6664 -11.0833 -26.9747 1.8528 8.5524 24.4050 0.8317 -0.2230 -17.1649 0.2251 3.0542 8.4298 0.0000 0.0000 0.0000 0.4661 2.3011 5.8582 0.0000 0.0000 -0.0000 -1.0804 -11.5890 -26.9628 -6.2537 -14.6698 45.9917 7.3205 1.2067 -11.2934 0.9887 1.2030 -13.9457 -2.9646 -0.0620 -8.5566 13.1880 18.1624 -2.4200 7.3798 22.7640 11.6201 1.5604 12.0846 4.5258 0.0000 0.0000 0.0000 132.1022 -10.6044 26.7804 15.2910 -24.55 3.3459 27.5911 -35.716 21.0442 0.0 0.0 0.0 -7.1250 0.0 0.0 -0.6555 6.5144 -0.5769 0.0000 0.0000 0.0000 -105.9621 18.813 -23.554 -140.7958 -47.5913 -102.1506 -4.222 -56.2006 46.0182 0.0 0.0 0.0 7.1250 0.0 -0.0 51.8848 69.635 -33.5369
3.7597 17.4262 3.6857 -1.3331 -7.7712 21.4380 0.0000 0.0000 0.0000 -22.7055 -10.9463 -27.0086 1.8623 8.5731 24.4688 0.8459 -0.3918 -17.2564 0.2266 3.0638 8.4565 0.0000 0.0000 0.0000 0.4900 2.2699 5.8997 0.0000 0.0000 -0.0000 -1.0721 -11.6492 -26.9531 -6.2195 -14.6377 45.8563 7.4054 1.2007 -11.3561 0.9468 1.1803 -13.9088 -3.0569 -0.0805 -8.4819 13.2619 18.1797 -2.4066 7.2261 22.8043 11.5484 1.5100 12.0958 4.5278 -0.0000 0.0000 0.0000 132.1696 -10.4561 26.6327 15.3294 -24.603 3.3619 27.5172 -35.7737 20.808 0.0 0.0 0.0 -7.1250 0.0 0.0 -0.6727 6.786 -0.5885 -0.0000 0.0000 0.0000 -105.944 18.7339 -23.6988 -140.7078 -47.6449 -102.0856 -4.639 -55.8978 46.2117 0.0 0.0 0.0 7.1250 0.0 -0.0 51.9481 69.889 -33.8508
3.7607 17.4251 3.6931 -1.3888 -7.6970 21.4739 0.0000 0.0000 0.0000 -22.6427 -10.9415 -27.0574 1.8703 8.5906 24.5227 0.8502 -0.4710 -17.2747 0.2293 3.0819 8.5068 0.0000 0.0000 0.0000 0.5757 2.2075 5.9083 0.0000 -0.0000 0.0000 -0.9657 -12.2302 -26.6777 -6.0432 -14.4701 45.1550 7.5356 1.2121 -11.4735 0.9140 1.1736 -13.8633 -3.1635 -0.0925 -8.3661 13.1900 18.2020 -2.5983 7.2657 22.8036 11.5465 1.5460 12.0959 4.5442 0.0000 -0.0000 0.0000 132.2532 -10.3137 26.3591 15.3825 -24.6762 3.384 27.3558 -36.0316 20.7106 0.0 0.0 0.0 -7.1250 0.0 0.0 -0.7628 6.9227 -0.6654 0.0000 -0.0000 0.0000 -105.9403 18.873 -23.6462 -140.7650 -47.6101 -102.1279 -5.9492 -54.908 46.3079 0.0 0.0 0.0 7.1250 0.0 -0.0 51.0174 70.3886 -33.6535
3.7596 17.4236 3.6959 -1.3975 -7.6274 21.4469 0.0000 0.0000 0.0000 -22.6144 -10.9696 -27.0371 1.8763 8.6035 24.5626 0.8537 -0.5322 -17.2913 0.2404 3.1556 8.7123 0.0000 0.0000 0.0000 0.6136 2.1322 5.9728 0.0000 -0.0000 0.0000 -0.9859 -12.0801 -26.6927 -6.0646 -14.4906 45.2404 7.5919 1.2180 -11.4581 0.8718 1.1781 -13.8563 -3.2401 -0.0975 -8.3664 13.1054 18.1404 -2.6500 7.2697 22.7248 11.4372 1.5459 12.0499 4.5057 -0.0000 0.0000 0.0000 132.3115 -10.376 26.4325 15.3710 -24.6604 3.3792 27.1305 -35.8647 20.5915 0.0 0.0 0.0 -7.1250 0.0 0.0 -0.8912 7.0948 -0.7744 -0.0000 0.0000 0.0000 -105.9939 19.0911 -23.4294 -140.8463 -47.5604 -102.1879 -7.3049 -53.7479 46.2602 0.0 0.0 0.0 7.1250 0.0 -0.0 49.7048 70.8232 -33.0859
3.7613 17.4220 3.6986 -1.3934 -7.5563 21.4357 0.0000 0.0000 0.0000 -22.6383 -10.8964 -27.0492 1.8798 8.6111 24.5861 0.8594 -0.7064 -17.2960 0.2578 3.2669 9.0228 0.0000 0.0000 0.0000 0.6391 2.0536 6.0128 0.0000 0.0000 0.0000 -0.8181 -12.9451 -26.2242 -5.8036 -14.2352 44.1881 7.6927 1.2290 -11.4509 0.7996 1.1852 -13.8694 -3.3735 -0.1085 -8.3859 13.1558 18.1066 -2.5513 7.2203 22.7034 11.3345 1.5096 12.0332 4.4685 -0.0000 0.0000 0.0000 132.3636 -10.5856 27.1006 15.2892 -24.5474 3.3451 27.143 -35.2008 20.5478 0.0 0.0 0.0 -7.1250 0.0 0.0 -0.8781 7.1399 -0.7622 -0.0000 0.0000 0.0000 -105.9856 19.203 -23.3101 -140.8639 -47.5497 -102.2009 -8.7185 -52.4884 46.2566 0.0 0.0 0.0 7.1250 0.0 -0.0 48.4223 71.3094 -32.5817
3.7628 17.4213 3.7019 -1.3641 -7.6035 21.4561 0.0000 0.0000 0.0000 -22.7124 -10.7899 -27.0839 1.8762 8.6033 24.5620 0.8607 -0.7792 -17.2873 0.2590 3.2745 9.0439 0.0000 0.0000 0.0000 0.5988 2.0825 6.0014 0.0000 -0.0000 0.0000 -0.4422 -14.7942 -25.1587 -5.1982 -13.6036 41.6723 7.7098 1.2677 -11.4953 0.7351 1.2294 -13.8987 -3.4498 -0.0927 -8.3893 13.2363 18.1020 -2.4299 7.2016 22.7141 11.3376 1.4865 12.0398 4.4621 -0.0000 -0.0000 0.0000 132.3851 -10.6631 27.2187 15.3062 -24.5709 3.3522 27.2367 -35.239 20.5753 0.0 0.0 0.0 -7.1250 0.0 0.0 -0.8219 7.0925 -0.7142 -0.0000 -0.0000 0.0000 -105.9867 19.2979 -23.2964 -140.9045 -47.5248 -102.2308 -9.6985 -51.8404 46.3662 0.0 0.0 0.0 7.1250 0.0 -0.0 47.7939 71.7197 -32.4939
3.7619 17.4217 3.6997 -1.2873 -7.8659 21.5083 0.0000 0.0000 0.0000 -22.8247 -10.8003 -27.1128 1.8654 8.5799 24.4897 0.8399 -0.4473 -17.1768 0.2146 2.9821 8.2288 0.0000 0.0000 0.0000 0.4280 2.3132 5.9025 0.0000 0.0000 -0.0000 -0.3570 -15.2122 -24.9309 -5.0465 -13.4360 41.0234 7.5515 1.3361 -11.4744 0.6985 1.3305 -13.9527 -3.3969 -0.0335 -8.4482 13.1267 18.0821 -2.5422 7.3740 22.6493 11.5343 1.5618 12.0236 4.5090 -0.0000 -0.0000 0.0000 132.3665 -10.5546 26.6851 15.4052 -24.7076 3.3935 27.0249 -35.8708 20.7419 0.0 0.0 0.0 -7.1250 0.0 0.0 -0.9762 6.951 -0.851 -0.0000 -0.0000 0.0000 -106.0581 19.3681 -23.326 -140.9681 -47.4858 -102.2777 -8.8755 -52.7152 46.2649 0.0 0.0 0.0 7.1250 0.0 -0.0 48.2996 71.3692 -32.5456
3.7625 17.4242 3.6901 -1.1914 -8.1785 21.6704 0.0000 0.0000 0.0000 -22.9137 -10.9590 -27.2556 1.8514 8.5495 24.3960 0.8444 -0.2117 -17.3003 0.2512 3.2251 8.9060 0.0000 0.0000 0.0000 0.2026 2.6046 5.6329 0.0000 0.0000 -0.0000 -0.4966 -14.6638 -25.4613 -5.2683 -13.6797 41.9694 7.3378 1.4156 -11.4689 0.6631 1.4478 -14.0078 -3.3111 0.0394 -8.4978 12.9763 18.0962 -2.7493 7.5785 22.6159 11.6830 1.6580 12.0210 4.5477 0.0000 0.0000 0.0000 132.3568 -10.4877 26.6633 15.4137 -24.7193 3.3971 26.5423 -35.948 21.2171 0.0 0.0 0.0 -7.1250 0.0 0.0 -1.3382 6.5264 -1.1777 0.0000 0.0000 0.0000 -106.0759 19.3425 -23.4476 -140.9330 -47.5073 -102.2518 -7.3093 -53.9234 45.9782 0.0 0.0 0.0 7.1250 0.0 -0.0 49.0496 70.6525 -32.4174
3.7604 17.4260 3.6833 -1.0844 -8.2556 21.6860 0.0000 0.0000 0.0000 -23.0069 -11.0061 -27.2614 1.8380 8.5202 24.3055 0.8142 -0.0772 -17.0307 0.2246 3.0505 8.4193 0.0000 0.0000 0.0000 0.0832 2.6503 5.5654 0.0000 -0.0000 0.0000 -0.6457 -14.0110 -25.9541 -5.4997 -13.9253 42.9390 7.1585 1.4069 -11.4636 0.6456 1.4433 -13.9584 -3.2306 0.0562 -8.4407 12.9473 18.1435 -2.8680 7.5647 22.6644 11.6531 1.6705 12.0420 4.5556 0.0000 -0.0000 0.0000 132.3448 -10.5179 27.1441 15.3495 -24.6307 3.3703 26.4887 -35.7127 21.4439 0.0 0.0 0.0 -7.1250 0.0 0.0 -1.3991 6.2915 -1.2377 0.0000 -0.0000 0.0000 -106.0195 19.2294 -23.7047 -140.8002 -47.5886 -102.1538 -6.8044 -54.2256 45.8429 0.0 0.0 0.0 7.1250 0.0 -0.0 49.1988 70.3973 -32.2775
3.7570 17.4268 3.6838 -1.0896 -8.0173 21.4983 0.0000 0.0000 0.0000 -23.0077 -10.8351 -27.0500 1.8278 8.4978 24.2366 0.8317 -0.4749 -17.0830 0.2546 3.2465 8.9658 0.0000 0.0000 0.0000 0.2329 2.4068 5.8155 0.0000 0.0000 0.0000 -0.8987 -12.6934 -26.6017 -5.8736 -14.3047 44.4724 7.1994 1.3003 -11.3730 0.6683 1.3042 -13.8245 -3.2365 -0.0089 -8.3520 12.9531 18.1922 -2.9395 7.4552 22.7353 11.5189 1.6442 12.0648 4.5382 0.0000 -0.0000 0.0000 132.3289 -10.506 27.6816 15.2907 -24.5495 3.3458 26.6546 -35.383 21.3759 0.0 0.0 0.0 -7.1250 0.0 0.0 -1.2864 6.3335 -1.137 0.0000 -0.0000 0.0000 -105.9399 19.0894 -23.9737 -140.7111 -47.6429 -102.088 -6.9003 -54.2068 45.9629 0.0 0.0 0.0 7.1250 0.0 -0.0 49.3836 70.5037 -32.5232
3.7576 17.4295 3.6861 -1.1912 -7.8405 21.4355 0.0000 0.0000 0.0000 -22.8789 -10.8321 -26.9467 1.8215 8.4838 24.1936 0.8185 -0.4742 -16.9447 0.2293 3.0822 8.5077 0.0000 0.0000 0.0000 0.4309 2.2660 5.9247 0.0000 0.0000 -0.0000 -1.1739 -11.2527 -27.3609 -6.2667 -14.6819 46.0428 7.3643 1.2640 -11.3477 0.6875 1.2488 -13.7710 -3.3103 -0.0477 -8.3134 12.9997 18.2153 -2.8712 7.3489 22.7929 11.3700 1.5989 12.0813 4.4985 -0.0000 -0.0000 0.0000 132.335 -10.3757 27.6494 15.3096 -24.5756 3.3536 26.5269 -35.3778 21.3198 0.0 0.0 0.0 -7.1250 0.0 0.0 -1.3602 6.4183 -1.1999 -0.0000 -0.0000 0.0000 -105.9466 19.0202 -24.0731 -140.6648 -47.6711 -102.0538 -6.4587 -54.512 46.0152 0.0 0.0 0.0 7.1250 0.0 -0.0 49.8988 70.3855 -32.7962
3.7588 17.4322 3.6836 -1.2581 -7.8817 21.4866 0.0000 0.0000 0.0000 -22.7859 -10.9265 -26.9801 1.8196 8.4797 24.1808 0.8030 -0.2164 -16.8663 0.2065 2.9261 8.0730 0.0000 0.0000 0.0000 0.4958 2.3430 5.8430 0.0000 -0.0000 0.0000 -1.2590 -10.9315 -27.7077 -6.3641 -14.7722 46.4262 7.4337 1.3066 -11.3233 0.6940 1.3070 -13.8317 -3.3397 -0.0289 -8.3920 13.0517 18.1875 -2.6042 7.2308 22.8148 11.2668 1.5305 12.0816 4.4440 0.0000 -0.0000 0.0000 132.3411 -10.1817 26.7492 15.4282 -24.7393 3.4031 26.5434 -36.1558 21.0447 0.0 0.0 0.0 -7.1250 0.0 0.0 -1.3170 6.7127 -1.1543 0.0000 -0.0000 0.0000 -106.052 18.9788 -24.0565 -140.6041 -47.7079 -102.0089 -6.3235 -54.4721 45.8763 0.0 0.0 0.0 7.1250 0.0 -0.0 49.7071 70.2549 -32.5197
